<svg width="425" height="425" viewBox="0 0 425 425" fill="none" xmlns="http://www.w3.org/2000/svg">
<g clip-path="url(#clip0_2106_3)">
<path fill-rule="evenodd" clip-rule="evenodd" d="M421.912 89.525C421.912 89.525 399.564 50.784 336.799 86.0936C310.646 100.806 266.379 149.668 253.786 163.129C253.593 163.335 220.711 198.896 223.697 203.871C226.688 208.853 272.23 197.402 273.136 197.146C291.447 191.978 357.446 172.457 379.466 160.057C441.409 125.177 422.301 89.4634 421.912 89.525Z" fill="white"/>
<path fill-rule="evenodd" clip-rule="evenodd" d="M3.07988 335.466C3.07988 335.466 25.4279 374.207 88.193 338.898C114.346 324.185 158.612 275.323 171.205 261.862C171.398 261.656 204.28 226.096 201.294 221.121C198.303 216.138 152.761 227.59 151.856 227.845C133.545 233.014 67.5458 252.534 45.5251 264.934C-16.4173 299.815 2.69038 335.528 3.07988 335.466Z" fill="white"/>
<path fill-rule="evenodd" clip-rule="evenodd" d="M89.525 3.07988C89.525 3.07988 50.784 25.4279 86.0937 88.193C100.806 114.346 149.668 158.612 163.129 171.205C163.335 171.398 198.896 204.28 203.871 201.294C208.853 198.303 197.402 152.761 197.146 151.856C191.978 133.545 172.457 67.5458 160.057 45.5251C125.177 -16.4173 89.4634 2.69038 89.525 3.07988Z" fill="white"/>
<path fill-rule="evenodd" clip-rule="evenodd" d="M335.466 421.912C335.466 421.912 374.207 399.564 338.898 336.798C324.185 310.646 275.323 266.379 261.862 253.786C261.656 253.593 226.096 220.711 221.121 223.697C216.138 226.688 227.59 272.23 227.845 273.135C233.014 291.447 252.534 357.446 264.934 379.466C299.815 441.409 335.528 422.301 335.466 421.912Z" fill="white"/>
</g>
<defs>
<clipPath id="clip0_2106_3">
<rect width="425" height="425" fill="white"/>
</clipPath>
</defs>
</svg>
